<svg width="256" height="256" viewBox="0 0 256 256" fill="none" xmlns="http://www.w3.org/2000/svg">
<path d="M209.92 0H46.08C20.6307 0 0 20.6307 0 46.08V209.92C0 235.369 20.6307 256 46.08 256H209.92C235.369 256 256 235.369 256 209.92V46.08C256 20.6307 235.369 0 209.92 0Z" fill="#F5F0E8"/>
<path d="M207.138 23.424H48.8622C34.8136 23.424 23.425 34.8126 23.425 48.8612V207.137C23.425 221.186 34.8136 232.574 48.8622 232.574H207.138C221.187 232.574 232.575 221.186 232.575 207.137V48.8612C232.575 34.8126 221.187 23.424 207.138 23.424Z" fill="#FFFEF9"/>
<path d="M53.3952 46.0801V76.2266M65.2302 46.0801V76.2266M47.1562 57.0381H71.4832M47.1562 65.8981H71.4832" stroke="#C0A882" stroke-width="5.5296" stroke-linecap="round"/>
<path d="M203.395 97.5273H53.3959C49.9213 97.5273 47.1045 100.344 47.1045 103.819C47.1045 107.293 49.9213 110.11 53.3959 110.11H203.395C206.869 110.11 209.686 107.293 209.686 103.819C209.686 100.344 206.869 97.5273 203.395 97.5273Z" fill="#1A1714"/>
<path d="M159.969 126.363H51.2988C48.9823 126.363 47.1045 128.241 47.1045 130.558C47.1045 132.874 48.9823 134.752 51.2988 134.752H159.969C162.286 134.752 164.163 132.874 164.163 130.558C164.163 128.241 162.286 126.363 159.969 126.363Z" fill="#4A4540"/>
<path d="M159.968 156.509H49.9881C48.3955 156.509 47.1045 157.8 47.1045 159.393C47.1045 160.985 48.3955 162.277 49.9881 162.277H159.968C161.56 162.277 162.852 160.985 162.852 159.393C162.852 157.8 161.56 156.509 159.968 156.509Z" fill="#3C3228" fill-opacity="0.22"/>
<path d="M133.119 172.237H49.9881C48.3955 172.237 47.1045 173.528 47.1045 175.121C47.1045 176.713 48.3955 178.005 49.9881 178.005H133.119C134.712 178.005 136.003 176.713 136.003 175.121C136.003 173.528 134.712 172.237 133.119 172.237Z" fill="#3C3228" fill-opacity="0.12"/>
<path d="M151.427 187.967H49.9881C48.3955 187.967 47.1045 189.258 47.1045 190.851C47.1045 192.443 48.3955 193.735 49.9881 193.735H151.427C153.02 193.735 154.311 192.443 154.311 190.851C154.311 189.258 153.02 187.967 151.427 187.967Z" fill="#3C3228" fill-opacity="0.22"/>
<path d="M114.685 205.005H49.9881C48.3955 205.005 47.1045 206.296 47.1045 207.889C47.1045 209.481 48.3955 210.773 49.9881 210.773H114.685C116.278 210.773 117.569 209.481 117.569 207.889C117.569 206.296 116.278 205.005 114.685 205.005Z" fill="#3C3228" fill-opacity="0.12"/>
</svg>
